<svg xmlns="http://www.w3.org/2000/svg" width="115" height="111.499" viewBox="0 0 115 111.499">
  <g id="golomt-logo" transform="translate(-266 -184)">
    <path id="Subtraction_2" data-name="Subtraction 2" d="M57.789,111.5a60.065,60.065,0,0,1-11.647-1.137,58.48,58.48,0,0,1-20.664-8.423A57.833,57.833,0,0,1,16.926,95.1,56.8,56.8,0,0,1,9.869,86.82a55.473,55.473,0,0,1-5.328-9.508,54.562,54.562,0,0,1-3.367-33.05A53.773,53.773,0,0,1,4.541,33.805,54.616,54.616,0,0,1,9.869,24.37a56.1,56.1,0,0,1,7.057-8.2,57.449,57.449,0,0,1,8.553-6.752,58.5,58.5,0,0,1,9.816-5.088,59.421,59.421,0,0,1,10.848-3.21,61.214,61.214,0,0,1,23.293,0,59.406,59.406,0,0,1,10.847,3.21A58.5,58.5,0,0,1,90.1,9.416a57.442,57.442,0,0,1,8.553,6.752,56.07,56.07,0,0,1,7.056,8.2,54.589,54.589,0,0,1,5.328,9.436A53.74,53.74,0,0,1,114.4,44.261c.232,1.1.433,2.215.6,3.33H63.454L45.778,80.225H27.421L53.71,32.181H91.637A42.537,42.537,0,0,0,58.016,15.864c-22.993,0-41.7,17.893-41.7,39.886s18.706,39.885,41.7,39.885A42.077,42.077,0,0,0,91.283,79.772h-27.6l9.065-15.864h42.187c-.15.971-.329,1.945-.53,2.9a54.428,54.428,0,0,1-3.367,10.507,55.471,55.471,0,0,1-5.328,9.508A56.811,56.811,0,0,1,98.652,95.1a58.029,58.029,0,0,1-18.369,12,58.858,58.858,0,0,1-10.847,3.262A60.063,60.063,0,0,1,57.789,111.5Z" transform="translate(266 184)" fill="#fff"/>
  </g>
</svg>
